<?xml version="1.0" encoding="UTF-8" standalone="no"?>
<!DOCTYPE svg PUBLIC "-//W3C//DTD SVG 1.1//EN" "http://www.w3.org/Graphics/SVG/1.1/DTD/svg11.dtd">
<svg width="100%" height="100%" viewBox="0 0 600 600" version="1.1" xmlns="http://www.w3.org/2000/svg" xmlns:xlink="http://www.w3.org/1999/xlink" xml:space="preserve" xmlns:serif="http://www.serif.com/" style="fill-rule:evenodd;clip-rule:evenodd;stroke-linecap:round;stroke-linejoin:round;stroke-miterlimit:1.5;">
    <g transform="matrix(1.14325,0.352418,-0.352418,1.14325,-3269.45,-2824.64)">
        <path d="M3640.96,1434.41C3640.96,1434.35 3640.96,1434.29 3640.96,1434.22C3640.96,1422.13 3651.89,1412.31 3665.36,1412.31C3678.82,1412.31 3689.75,1422.13 3689.75,1434.22C3689.75,1434.29 3689.75,1434.35 3689.75,1434.41L3689.75,1434.41L3689.75,1434.35C3689.75,1422.26 3700.68,1412.44 3714.14,1412.44C3724.18,1412.44 3732.82,1417.9 3736.56,1425.69C3741.42,1417.73 3749.77,1412.46 3759.24,1412.46C3774.23,1412.46 3786.41,1425.64 3786.41,1441.87C3786.41,1452.72 3780.96,1462.2 3772.87,1467.3C3780.89,1471.62 3786.41,1480.59 3786.41,1490.94C3786.41,1504.78 3776.55,1516.14 3764.03,1517.25C3776.55,1518.36 3786.41,1529.73 3786.41,1543.57C3786.41,1558.14 3775.47,1569.97 3762.01,1569.97C3775.47,1569.97 3786.41,1581.8 3786.41,1596.37C3786.41,1610.94 3775.47,1622.77 3762.01,1622.77C3775.47,1622.77 3786.41,1634.6 3786.41,1649.17C3786.41,1663.74 3775.47,1675.57 3762.01,1675.57C3775.47,1675.57 3786.41,1687.4 3786.41,1701.97C3786.41,1712.29 3780.93,1721.23 3772.95,1725.57C3781,1730.68 3786.41,1740.14 3786.41,1750.95C3786.41,1767.18 3774.23,1780.35 3759.24,1780.35C3749.78,1780.35 3741.45,1775.11 3736.58,1767.17C3732.86,1774.99 3724.21,1780.48 3714.14,1780.48C3700.68,1780.48 3689.75,1770.66 3689.75,1758.57L3689.75,1758.5C3689.71,1770.57 3678.8,1780.35 3665.36,1780.35C3651.92,1780.35 3641,1770.57 3640.96,1758.5L3640.96,1758.57C3640.96,1770.66 3630.03,1780.48 3616.57,1780.48C3603.11,1780.48 3592.18,1770.66 3592.18,1758.57L3592.18,1758.5C3592.14,1770.57 3581.22,1780.35 3567.78,1780.35C3557.35,1780.35 3548.45,1774.46 3544.96,1766.18C3540.18,1774.63 3531.58,1780.27 3521.77,1780.27C3506.77,1780.27 3494.6,1767.1 3494.6,1750.87C3494.6,1740.36 3499.71,1731.12 3507.39,1725.92C3499.78,1721.45 3494.6,1712.73 3494.6,1702.7C3494.6,1688.13 3505.53,1676.3 3518.99,1676.3L3518.84,1676.3C3505.45,1676.21 3494.6,1664.41 3494.6,1649.9C3494.6,1635.33 3505.53,1623.5 3518.99,1623.5L3518.84,1623.5C3505.45,1623.4 3494.6,1611.61 3494.6,1597.1C3494.6,1582.52 3505.53,1570.69 3518.99,1570.69L3518.84,1570.69C3505.45,1570.6 3494.6,1558.81 3494.6,1544.29C3494.6,1530.46 3504.46,1519.09 3516.98,1517.98C3504.46,1516.87 3494.6,1505.51 3494.6,1491.67C3494.6,1481.04 3500.41,1471.88 3508.78,1467.69C3500.34,1462.7 3494.6,1453 3494.6,1441.87C3494.6,1425.64 3506.77,1412.46 3521.77,1412.46C3531.57,1412.46 3540.16,1418.09 3544.94,1426.52C3548.41,1418.22 3557.34,1412.31 3567.78,1412.31C3581.24,1412.31 3592.18,1422.13 3592.18,1434.22C3592.18,1434.29 3592.18,1434.35 3592.18,1434.41L3592.18,1434.41L3592.18,1434.35C3592.18,1422.26 3603.11,1412.44 3616.57,1412.44C3630.03,1412.44 3640.96,1422.26 3640.96,1434.35L3640.96,1434.41L3640.96,1434.41ZM3730.31,1704.78C3730.31,1702.66 3728.59,1700.94 3726.46,1700.94C3724.34,1700.94 3722.62,1702.66 3722.62,1704.78L3722.62,1708.33C3722.62,1710.45 3724.34,1712.17 3726.46,1712.17C3728.59,1712.17 3730.31,1710.45 3730.31,1708.33L3730.31,1704.78ZM3601.28,1704.82C3601.28,1702.74 3599.59,1701.05 3597.51,1701.05C3595.44,1701.05 3593.75,1702.74 3593.75,1704.82L3593.75,1708.29C3593.75,1710.37 3595.44,1712.05 3597.51,1712.05C3599.59,1712.05 3601.28,1710.37 3601.28,1708.29L3601.28,1704.82ZM3644.31,1704.82C3644.31,1702.74 3642.62,1701.05 3640.54,1701.05C3638.47,1701.05 3636.78,1702.74 3636.78,1704.82L3636.78,1708.29C3636.78,1710.37 3638.47,1712.05 3640.54,1712.05C3642.62,1712.05 3644.31,1710.37 3644.31,1708.29L3644.31,1704.82ZM3687.36,1704.82C3687.36,1702.74 3685.67,1701.05 3683.59,1701.05C3681.52,1701.05 3679.83,1702.74 3679.83,1704.82L3679.83,1708.29C3679.83,1710.37 3681.52,1712.05 3683.59,1712.05C3685.67,1712.05 3687.36,1710.37 3687.36,1708.29L3687.36,1704.82ZM3558.27,1704.82C3558.27,1702.74 3556.58,1701.05 3554.5,1701.05C3552.43,1701.05 3550.74,1702.74 3550.74,1704.82L3550.74,1708.29C3550.74,1710.37 3552.43,1712.05 3554.5,1712.05C3556.58,1712.05 3558.27,1710.37 3558.27,1708.29L3558.27,1704.82ZM3601.36,1649.88C3601.36,1647.8 3599.67,1646.11 3597.59,1646.11C3595.52,1646.11 3593.83,1647.8 3593.83,1649.88L3593.83,1653.35C3593.83,1655.43 3595.52,1657.11 3597.59,1657.11C3599.67,1657.11 3601.36,1655.43 3601.36,1653.35L3601.36,1649.88ZM3687.44,1649.88C3687.44,1647.8 3685.75,1646.11 3683.67,1646.11C3681.6,1646.11 3679.91,1647.8 3679.91,1649.88L3679.91,1653.35C3679.91,1655.43 3681.6,1657.11 3683.67,1657.11C3685.75,1657.11 3687.44,1655.43 3687.44,1653.35L3687.44,1649.88ZM3730.31,1649.88C3730.31,1647.8 3728.62,1646.11 3726.54,1646.11C3724.47,1646.11 3722.78,1647.8 3722.78,1649.88L3722.78,1653.35C3722.78,1655.43 3724.47,1657.11 3726.54,1657.11C3728.62,1657.11 3730.31,1655.43 3730.31,1653.35L3730.31,1649.88ZM3644.39,1649.88C3644.39,1647.8 3642.7,1646.11 3640.62,1646.11C3638.55,1646.11 3636.86,1647.8 3636.86,1649.88L3636.86,1653.35C3636.86,1655.43 3638.55,1657.11 3640.62,1657.11C3642.7,1657.11 3644.39,1655.43 3644.39,1653.35L3644.39,1649.88ZM3558.27,1649.88C3558.27,1647.8 3556.58,1646.11 3554.5,1646.11C3552.43,1646.11 3550.74,1647.8 3550.74,1649.88L3550.74,1653.35C3550.74,1655.43 3552.43,1657.11 3554.5,1657.11C3556.58,1657.11 3558.27,1655.43 3558.27,1653.35L3558.27,1649.88ZM3687.36,1594.73C3687.36,1592.68 3685.69,1591.01 3683.63,1591.01C3681.58,1591.01 3679.91,1592.68 3679.91,1594.73L3679.91,1598.17C3679.91,1600.23 3681.58,1601.89 3683.63,1601.89C3685.69,1601.89 3687.36,1600.23 3687.36,1598.17L3687.36,1594.73ZM3601.28,1594.73C3601.28,1592.68 3599.61,1591.01 3597.55,1591.01C3595.5,1591.01 3593.83,1592.68 3593.83,1594.73L3593.83,1598.17C3593.83,1600.23 3595.5,1601.89 3597.55,1601.89C3599.61,1601.89 3601.28,1600.23 3601.28,1598.17L3601.28,1594.73ZM3558.27,1594.66C3558.27,1592.58 3556.58,1590.89 3554.5,1590.89C3552.43,1590.89 3550.74,1592.58 3550.74,1594.66L3550.74,1598.13C3550.74,1600.21 3552.43,1601.89 3554.5,1601.89C3556.58,1601.89 3558.27,1600.21 3558.27,1598.13L3558.27,1594.66ZM3644.31,1594.73C3644.31,1592.68 3642.64,1591.01 3640.58,1591.01C3638.53,1591.01 3636.86,1592.68 3636.86,1594.73L3636.86,1598.17C3636.86,1600.23 3638.53,1601.89 3640.58,1601.89C3642.64,1601.89 3644.31,1600.23 3644.31,1598.17L3644.31,1594.73ZM3730.23,1594.73C3730.23,1592.68 3728.56,1591.01 3726.5,1591.01C3724.45,1591.01 3722.78,1592.68 3722.78,1594.73L3722.78,1598.17C3722.78,1600.23 3724.45,1601.89 3726.5,1601.89C3728.56,1601.89 3730.23,1600.23 3730.23,1598.17L3730.23,1594.73ZM3687.47,1539.66C3687.47,1537.59 3685.79,1535.9 3683.71,1535.9C3681.64,1535.9 3679.95,1537.59 3679.95,1539.66L3679.95,1543.14C3679.95,1545.21 3681.64,1546.9 3683.71,1546.9C3685.79,1546.9 3687.47,1545.21 3687.47,1543.14L3687.47,1539.66ZM3558.27,1539.66C3558.27,1537.59 3556.58,1535.9 3554.5,1535.9C3552.43,1535.9 3550.74,1537.59 3550.74,1539.66L3550.74,1543.14C3550.74,1545.21 3552.43,1546.9 3554.5,1546.9C3556.58,1546.9 3558.27,1545.21 3558.27,1543.14L3558.27,1539.66ZM3730.35,1539.66C3730.35,1537.59 3728.66,1535.9 3726.58,1535.9C3724.51,1535.9 3722.82,1537.59 3722.82,1539.66L3722.82,1543.14C3722.82,1545.21 3724.51,1546.9 3726.58,1546.9C3728.66,1546.9 3730.35,1545.21 3730.35,1543.14L3730.35,1539.66ZM3601.28,1539.66C3601.28,1537.59 3599.59,1535.9 3597.51,1535.9C3595.44,1535.9 3593.75,1537.59 3593.75,1539.66L3593.75,1543.14C3593.75,1545.21 3595.44,1546.9 3597.51,1546.9C3599.59,1546.9 3601.28,1545.21 3601.28,1543.14L3601.28,1539.66ZM3644.43,1539.66C3644.43,1537.59 3642.74,1535.9 3640.66,1535.9C3638.59,1535.9 3636.9,1537.59 3636.9,1539.66L3636.9,1543.14C3636.9,1545.21 3638.59,1546.9 3640.66,1546.9C3642.74,1546.9 3644.43,1545.21 3644.43,1543.14L3644.43,1539.66ZM3687.4,1484.5C3687.4,1482.42 3685.71,1480.74 3683.63,1480.74C3681.56,1480.74 3679.87,1482.42 3679.87,1484.5L3679.87,1487.97C3679.87,1490.05 3681.56,1491.74 3683.63,1491.74C3685.71,1491.74 3687.4,1490.05 3687.4,1487.97L3687.4,1484.5ZM3730.27,1484.5C3730.27,1482.42 3728.58,1480.74 3726.5,1480.74C3724.43,1480.74 3722.74,1482.42 3722.74,1484.5L3722.74,1487.97C3722.74,1490.05 3724.43,1491.74 3726.5,1491.74C3728.58,1491.74 3730.27,1490.05 3730.27,1487.97L3730.27,1484.5ZM3558.27,1484.5C3558.27,1482.42 3556.58,1480.74 3554.5,1480.74C3552.43,1480.74 3550.74,1482.42 3550.74,1484.5L3550.74,1487.97C3550.74,1490.05 3552.43,1491.74 3554.5,1491.74C3556.58,1491.74 3558.27,1490.05 3558.27,1487.97L3558.27,1484.5ZM3601.32,1484.5C3601.32,1482.42 3599.63,1480.74 3597.55,1480.74C3595.48,1480.74 3593.79,1482.42 3593.79,1484.5L3593.79,1487.97C3593.79,1490.05 3595.48,1491.74 3597.55,1491.74C3599.63,1491.74 3601.32,1490.05 3601.32,1487.97L3601.32,1484.5ZM3644.35,1484.5C3644.35,1482.42 3642.66,1480.74 3640.58,1480.74C3638.51,1480.74 3636.82,1482.42 3636.82,1484.5L3636.82,1487.97C3636.82,1490.05 3638.51,1491.74 3640.58,1491.74C3642.66,1491.74 3644.35,1490.05 3644.35,1487.97L3644.35,1484.5Z" style="fill:rgb(221,173,117);stroke:black;stroke-width:10.45px;"/>
    </g>
    <g transform="matrix(1.14325,0.352418,-0.352418,1.14325,-3329.41,-2791.52)">
        <path d="M3640.96,1434.41C3640.96,1434.35 3640.96,1434.29 3640.96,1434.22C3640.96,1422.13 3651.89,1412.31 3665.36,1412.31C3678.82,1412.31 3689.75,1422.13 3689.75,1434.22C3689.75,1434.29 3689.75,1434.35 3689.75,1434.41L3689.75,1434.41L3689.75,1434.35C3689.75,1422.26 3700.68,1412.44 3714.14,1412.44C3724.18,1412.44 3732.82,1417.9 3736.56,1425.69C3741.42,1417.73 3749.77,1412.46 3759.24,1412.46C3774.23,1412.46 3786.41,1425.64 3786.41,1441.87C3786.41,1452.72 3780.96,1462.2 3772.87,1467.3C3780.89,1471.62 3786.41,1480.59 3786.41,1490.94C3786.41,1504.78 3776.55,1516.14 3764.03,1517.25C3776.55,1518.36 3786.41,1529.73 3786.41,1543.57C3786.41,1558.14 3775.47,1569.97 3762.01,1569.97C3775.47,1569.97 3786.41,1581.8 3786.41,1596.37C3786.41,1610.94 3775.47,1622.77 3762.01,1622.77C3775.47,1622.77 3786.41,1634.6 3786.41,1649.17C3786.41,1663.74 3775.47,1675.57 3762.01,1675.57C3775.47,1675.57 3786.41,1687.4 3786.41,1701.97C3786.41,1712.29 3780.93,1721.23 3772.95,1725.57C3781,1730.68 3786.41,1740.14 3786.41,1750.95C3786.41,1767.18 3774.23,1780.35 3759.24,1780.35C3749.78,1780.35 3741.45,1775.11 3736.58,1767.17C3732.86,1774.99 3724.21,1780.48 3714.14,1780.48C3700.68,1780.48 3689.75,1770.66 3689.75,1758.57L3689.75,1758.5C3689.71,1770.57 3678.8,1780.35 3665.36,1780.35C3651.92,1780.35 3641,1770.57 3640.96,1758.5L3640.96,1758.57C3640.96,1770.66 3630.03,1780.48 3616.57,1780.48C3603.11,1780.48 3592.18,1770.66 3592.18,1758.57L3592.18,1758.5C3592.14,1770.57 3581.22,1780.35 3567.78,1780.35C3557.35,1780.35 3548.45,1774.46 3544.96,1766.18C3540.18,1774.63 3531.58,1780.27 3521.77,1780.27C3506.77,1780.27 3494.6,1767.1 3494.6,1750.87C3494.6,1740.36 3499.71,1731.12 3507.39,1725.92C3499.78,1721.45 3494.6,1712.73 3494.6,1702.7C3494.6,1688.13 3505.53,1676.3 3518.99,1676.3L3518.84,1676.3C3505.45,1676.21 3494.6,1664.41 3494.6,1649.9C3494.6,1635.33 3505.53,1623.5 3518.99,1623.5L3518.84,1623.5C3505.45,1623.4 3494.6,1611.61 3494.6,1597.1C3494.6,1582.52 3505.53,1570.69 3518.99,1570.69L3518.84,1570.69C3505.45,1570.6 3494.6,1558.81 3494.6,1544.29C3494.6,1530.46 3504.46,1519.09 3516.98,1517.98C3504.46,1516.87 3494.6,1505.51 3494.6,1491.67C3494.6,1481.04 3500.41,1471.88 3508.78,1467.69C3500.34,1462.7 3494.6,1453 3494.6,1441.87C3494.6,1425.64 3506.77,1412.46 3521.77,1412.46C3531.57,1412.46 3540.16,1418.09 3544.94,1426.52C3548.41,1418.22 3557.34,1412.31 3567.78,1412.31C3581.24,1412.31 3592.18,1422.13 3592.18,1434.22C3592.18,1434.29 3592.18,1434.35 3592.18,1434.41L3592.18,1434.41L3592.18,1434.35C3592.18,1422.26 3603.11,1412.44 3616.57,1412.44C3630.03,1412.44 3640.96,1422.26 3640.96,1434.35L3640.96,1434.41L3640.96,1434.41ZM3730.31,1704.78C3730.31,1702.66 3728.59,1700.94 3726.46,1700.94C3724.34,1700.94 3722.62,1702.66 3722.62,1704.78L3722.62,1708.33C3722.62,1710.45 3724.34,1712.17 3726.46,1712.17C3728.59,1712.17 3730.31,1710.45 3730.31,1708.33L3730.31,1704.78ZM3601.28,1704.82C3601.28,1702.74 3599.59,1701.05 3597.51,1701.05C3595.44,1701.05 3593.75,1702.74 3593.75,1704.82L3593.75,1708.29C3593.75,1710.37 3595.44,1712.05 3597.51,1712.05C3599.59,1712.05 3601.28,1710.37 3601.28,1708.29L3601.28,1704.82ZM3644.31,1704.82C3644.31,1702.74 3642.62,1701.05 3640.54,1701.05C3638.47,1701.05 3636.78,1702.74 3636.78,1704.82L3636.78,1708.29C3636.78,1710.37 3638.47,1712.05 3640.54,1712.05C3642.62,1712.05 3644.31,1710.37 3644.31,1708.29L3644.31,1704.82ZM3687.36,1704.82C3687.36,1702.74 3685.67,1701.05 3683.59,1701.05C3681.52,1701.05 3679.83,1702.74 3679.83,1704.82L3679.83,1708.29C3679.83,1710.37 3681.52,1712.05 3683.59,1712.05C3685.67,1712.05 3687.36,1710.37 3687.36,1708.29L3687.36,1704.82ZM3558.27,1704.82C3558.27,1702.74 3556.58,1701.05 3554.5,1701.05C3552.43,1701.05 3550.74,1702.74 3550.74,1704.82L3550.74,1708.29C3550.74,1710.37 3552.43,1712.05 3554.5,1712.05C3556.58,1712.05 3558.27,1710.37 3558.27,1708.29L3558.27,1704.82ZM3601.36,1649.88C3601.36,1647.8 3599.67,1646.11 3597.59,1646.11C3595.52,1646.11 3593.83,1647.8 3593.83,1649.88L3593.83,1653.35C3593.83,1655.43 3595.52,1657.11 3597.59,1657.11C3599.67,1657.11 3601.36,1655.43 3601.36,1653.35L3601.36,1649.88ZM3687.44,1649.88C3687.44,1647.8 3685.75,1646.11 3683.67,1646.11C3681.6,1646.11 3679.91,1647.8 3679.91,1649.88L3679.91,1653.35C3679.91,1655.43 3681.6,1657.11 3683.67,1657.11C3685.75,1657.11 3687.44,1655.43 3687.44,1653.35L3687.44,1649.88ZM3730.31,1649.88C3730.31,1647.8 3728.62,1646.11 3726.54,1646.11C3724.47,1646.11 3722.78,1647.8 3722.78,1649.88L3722.78,1653.35C3722.78,1655.43 3724.47,1657.11 3726.54,1657.11C3728.62,1657.11 3730.31,1655.43 3730.31,1653.35L3730.31,1649.88ZM3644.39,1649.88C3644.39,1647.8 3642.7,1646.11 3640.62,1646.11C3638.55,1646.11 3636.86,1647.8 3636.86,1649.88L3636.86,1653.35C3636.86,1655.43 3638.55,1657.11 3640.62,1657.11C3642.7,1657.11 3644.39,1655.43 3644.39,1653.35L3644.39,1649.88ZM3558.27,1649.88C3558.27,1647.8 3556.58,1646.11 3554.5,1646.11C3552.43,1646.11 3550.74,1647.8 3550.74,1649.88L3550.74,1653.35C3550.74,1655.43 3552.43,1657.11 3554.5,1657.11C3556.58,1657.11 3558.27,1655.43 3558.27,1653.35L3558.27,1649.88ZM3687.36,1594.73C3687.36,1592.68 3685.69,1591.01 3683.63,1591.01C3681.58,1591.01 3679.91,1592.68 3679.91,1594.73L3679.91,1598.17C3679.91,1600.23 3681.58,1601.89 3683.63,1601.89C3685.69,1601.89 3687.36,1600.23 3687.36,1598.17L3687.36,1594.73ZM3601.28,1594.73C3601.28,1592.68 3599.61,1591.01 3597.55,1591.01C3595.5,1591.01 3593.83,1592.68 3593.83,1594.73L3593.83,1598.17C3593.83,1600.23 3595.5,1601.89 3597.55,1601.89C3599.61,1601.89 3601.28,1600.23 3601.28,1598.17L3601.28,1594.73ZM3558.27,1594.66C3558.27,1592.58 3556.58,1590.89 3554.5,1590.89C3552.43,1590.89 3550.74,1592.58 3550.74,1594.66L3550.74,1598.13C3550.74,1600.21 3552.43,1601.89 3554.5,1601.89C3556.58,1601.89 3558.27,1600.21 3558.27,1598.13L3558.27,1594.66ZM3644.31,1594.73C3644.31,1592.68 3642.64,1591.01 3640.58,1591.01C3638.53,1591.01 3636.86,1592.68 3636.86,1594.73L3636.86,1598.17C3636.86,1600.23 3638.53,1601.89 3640.58,1601.89C3642.64,1601.89 3644.31,1600.23 3644.31,1598.17L3644.31,1594.73ZM3730.23,1594.73C3730.23,1592.68 3728.56,1591.01 3726.5,1591.01C3724.45,1591.01 3722.78,1592.68 3722.78,1594.73L3722.78,1598.17C3722.78,1600.23 3724.45,1601.89 3726.5,1601.89C3728.56,1601.89 3730.23,1600.23 3730.23,1598.17L3730.23,1594.73ZM3687.47,1539.66C3687.47,1537.59 3685.79,1535.9 3683.71,1535.9C3681.64,1535.9 3679.95,1537.59 3679.95,1539.66L3679.95,1543.14C3679.95,1545.21 3681.64,1546.9 3683.71,1546.9C3685.79,1546.9 3687.47,1545.21 3687.47,1543.14L3687.47,1539.66ZM3558.27,1539.66C3558.27,1537.59 3556.58,1535.9 3554.5,1535.9C3552.43,1535.9 3550.74,1537.59 3550.74,1539.66L3550.74,1543.14C3550.74,1545.21 3552.43,1546.9 3554.5,1546.9C3556.58,1546.9 3558.27,1545.21 3558.27,1543.14L3558.27,1539.66ZM3730.35,1539.66C3730.35,1537.59 3728.66,1535.9 3726.58,1535.9C3724.51,1535.9 3722.82,1537.59 3722.82,1539.66L3722.82,1543.14C3722.82,1545.21 3724.51,1546.9 3726.58,1546.9C3728.66,1546.9 3730.35,1545.21 3730.35,1543.14L3730.35,1539.66ZM3601.28,1539.66C3601.28,1537.59 3599.59,1535.9 3597.51,1535.9C3595.44,1535.9 3593.75,1537.59 3593.75,1539.66L3593.75,1543.14C3593.75,1545.21 3595.44,1546.9 3597.51,1546.9C3599.59,1546.9 3601.28,1545.21 3601.28,1543.14L3601.28,1539.66ZM3644.43,1539.66C3644.43,1537.59 3642.74,1535.9 3640.66,1535.9C3638.59,1535.9 3636.9,1537.59 3636.9,1539.66L3636.9,1543.14C3636.9,1545.21 3638.59,1546.9 3640.66,1546.9C3642.74,1546.9 3644.43,1545.21 3644.43,1543.14L3644.43,1539.66ZM3687.4,1484.5C3687.4,1482.42 3685.71,1480.74 3683.63,1480.74C3681.56,1480.74 3679.87,1482.42 3679.87,1484.5L3679.87,1487.97C3679.87,1490.05 3681.56,1491.74 3683.63,1491.74C3685.71,1491.74 3687.4,1490.05 3687.4,1487.97L3687.4,1484.5ZM3730.27,1484.5C3730.27,1482.42 3728.58,1480.74 3726.5,1480.74C3724.43,1480.74 3722.74,1482.42 3722.74,1484.5L3722.74,1487.97C3722.74,1490.05 3724.43,1491.74 3726.5,1491.74C3728.58,1491.74 3730.27,1490.05 3730.27,1487.97L3730.27,1484.5ZM3558.27,1484.5C3558.27,1482.42 3556.58,1480.74 3554.5,1480.74C3552.43,1480.74 3550.74,1482.42 3550.74,1484.5L3550.74,1487.97C3550.74,1490.05 3552.43,1491.74 3554.5,1491.74C3556.58,1491.74 3558.27,1490.05 3558.27,1487.97L3558.27,1484.5ZM3601.32,1484.5C3601.32,1482.42 3599.63,1480.74 3597.55,1480.74C3595.48,1480.74 3593.79,1482.42 3593.79,1484.5L3593.79,1487.97C3593.79,1490.05 3595.48,1491.74 3597.55,1491.74C3599.63,1491.74 3601.32,1490.05 3601.32,1487.97L3601.32,1484.5ZM3644.35,1484.5C3644.35,1482.42 3642.66,1480.74 3640.58,1480.74C3638.51,1480.74 3636.82,1482.42 3636.82,1484.5L3636.82,1487.97C3636.82,1490.05 3638.51,1491.74 3640.58,1491.74C3642.66,1491.74 3644.35,1490.05 3644.35,1487.97L3644.35,1484.5Z" style="fill:rgb(221,173,117);stroke:black;stroke-width:10.45px;"/>
    </g>
</svg>
